<?xml version="1.0" standalone="no"?>
<!DOCTYPE svg PUBLIC "-//W3C//DTD SVG 20010904//EN"
 "http://www.w3.org/TR/2001/REC-SVG-20010904/DTD/svg10.dtd">
<svg version="1.0" xmlns="http://www.w3.org/2000/svg"
 width="172.000000pt" height="155.000000pt" viewBox="0 0 172.000000 155.000000"
 preserveAspectRatio="xMidYMid meet">

<g transform="translate(0.000000,155.000000) scale(0.100000,-0.100000)"
fill="#000000" stroke="none">
<path d="M812 1505 c-17 -14 -50 -64 -74 -110 -40 -80 -59 -98 -73 -75 -7 11
-128 80 -140 80 -5 0 30 -26 76 -59 46 -32 83 -64 81 -70 -1 -8 7 -9 25 -5 33
8 42 14 21 14 -11 0 -14 7 -11 23 8 42 87 179 115 200 25 19 28 19 52 4 24
-16 116 -185 116 -213 0 -8 -6 -14 -12 -14 -7 0 17 -11 53 -23 384 -131 492
-574 209 -855 -176 -176 -466 -207 -689 -75 -35 21 -85 62 -111 91 -46 50
-103 148 -103 178 0 8 -5 14 -10 14 -5 0 -7 7 -4 15 4 8 2 17 -4 21 -6 3 -8
12 -5 20 3 7 1 16 -4 19 -15 9 -12 144 5 210 38 143 130 256 265 324 45 23 77
41 70 41 -22 0 -147 -70 -188 -106 -29 -24 -43 -31 -48 -22 -4 7 -9 59 -11
118 -5 132 5 156 63 153 38 -2 38 -2 11 9 -72 27 -103 -36 -94 -188 l5 -91
-86 -6 c-143 -9 -211 -41 -197 -90 15 -51 49 -110 91 -156 24 -27 44 -52 44
-55 0 -3 -18 -15 -41 -26 -52 -27 -149 -121 -149 -144 0 -43 109 -106 210
-122 22 -4 40 -8 40 -10 0 -3 -13 -28 -30 -57 -37 -66 -63 -163 -50 -187 5
-10 17 -20 26 -24 30 -11 151 -6 200 9 27 8 52 15 55 15 3 0 9 -27 12 -59 12
-108 57 -191 104 -191 40 0 120 47 177 104 l54 54 48 -50 c55 -56 137 -108
172 -108 13 0 31 4 41 10 24 13 57 91 72 173 7 37 15 67 18 67 3 0 28 -7 55
-15 27 -8 82 -15 121 -15 59 0 75 4 90 20 24 27 14 84 -31 178 -20 41 -34 75
-32 76 2 2 34 11 71 21 83 22 161 70 165 104 4 28 -57 96 -130 143 -27 16 -48
35 -48 42 1 6 19 29 41 51 43 43 89 126 89 160 0 12 -8 29 -18 38 -26 24 -36
21 -13 -2 25 -25 16 -63 -33 -137 -31 -46 -92 -104 -109 -104 -14 0 -6 25 15
49 13 14 16 20 8 14 -19 -17 -49 -18 -32 -1 16 16 15 28 -4 28 -8 0 -22 17
-31 38 -8 20 -30 58 -49 84 -20 28 -29 50 -23 53 5 4 40 10 77 15 l67 7 -73 2
c-70 1 -73 2 -67 22 12 36 9 183 -4 222 -13 39 -52 60 -72 40 -7 -7 -2 -9 14
-6 18 4 28 -1 36 -15 19 -35 24 -126 11 -200 l-12 -71 -51 40 c-29 22 -87 57
-130 78 l-78 39 44 36 c25 20 69 50 98 66 30 16 50 30 46 30 -13 0 -131 -62
-163 -86 l-31 -24 -41 83 c-43 87 -93 147 -122 147 -10 0 -32 -11 -48 -25z
m-402 -400 c5 -3 -6 -26 -24 -50 -19 -24 -42 -64 -51 -88 -14 -37 -21 -44 -38
-40 -21 4 -21 3 -4 -10 20 -16 25 -45 5 -30 -7 6 -22 13 -33 17 -16 6 -14 1 9
-23 32 -33 30 -49 -2 -32 -52 28 -142 159 -142 208 0 23 28 38 100 53 45 9
162 6 180 -5z m-112 -357 c1 -35 5 -75 8 -90 5 -23 1 -30 -20 -39 -34 -16 -33
-29 3 -29 28 0 60 -24 47 -37 -10 -11 -138 17 -184 39 -84 42 -89 72 -24 134
39 36 125 84 152 84 13 0 16 -13 18 -62z m1208 36 c70 -37 124 -92 124 -126 0
-23 -9 -33 -52 -57 -48 -28 -182 -60 -195 -48 -10 11 8 26 39 32 31 7 31 7 10
24 -20 15 -21 22 -15 109 7 106 9 108 89 66z m-1138 -283 c11 -26 40 -66 87
-123 8 -10 10 -20 5 -23 -6 -4 -10 -13 -10 -20 0 -12 5 -12 24 -3 27 12 61 4
51 -12 -11 -18 -137 -50 -200 -50 -80 0 -92 12 -76 76 16 64 81 184 99 184 4
0 13 -13 20 -29z m1019 12 c57 -73 104 -226 72 -237 -55 -20 -145 -10 -225 25
-53 22 -50 43 4 33 33 -6 36 -6 23 9 -11 14 -7 25 34 79 26 35 52 73 58 86 12
27 16 27 34 5z m-216 -299 c-12 -83 -48 -158 -78 -162 -45 -7 -152 67 -204
139 -24 34 -18 51 9 26 19 -17 43 -23 41 -9 -3 19 2 26 11 12 8 -12 11 -12 27
2 25 23 72 40 111 40 17 0 32 4 32 9 0 5 6 9 14 9 7 0 17 10 20 23 l7 22 9
-23 c6 -14 6 -48 1 -88z m-606 75 c1 -8 6 -13 13 -11 19 3 172 -48 172 -58 0
-5 7 -7 15 -4 8 4 15 1 15 -5 0 -7 9 -5 25 5 43 28 49 10 11 -35 -64 -76 -147
-131 -198 -131 -30 0 -68 94 -75 186 -5 63 -4 76 8 72 8 -3 14 -11 14 -19z"/>
<path d="M765 1290 c-18 -8 -17 -9 8 -9 16 -1 26 3 22 9 -3 6 -7 10 -8 9 -1 0
-11 -4 -22 -9z"/>
<path d="M828 1293 c12 -2 32 -2 45 0 12 2 2 4 -23 4 -25 0 -35 -2 -22 -4z"/>
<path d="M933 1283 c9 -2 23 -2 30 0 6 3 -1 5 -18 5 -16 0 -22 -2 -12 -5z"/>
<path d="M1461 1116 c2 -2 22 -6 44 -9 28 -5 34 -4 20 3 -19 8 -73 14 -64 6z"/>
<path d="M571 886 c-88 -49 -53 -186 48 -186 61 0 96 35 96 95 0 40 -5 51 -33
76 -35 32 -72 37 -111 15z m89 -31 c10 -12 10 -19 2 -27 -16 -16 -42 -2 -42
22 0 24 22 26 40 5z"/>
<path d="M1034 866 c-68 -68 -33 -166 60 -166 66 0 101 33 101 95 0 40 -5 51
-33 76 -45 40 -84 39 -128 -5z m61 -21 c0 -13 -8 -21 -22 -23 -17 -3 -23 2
-23 16 0 10 3 22 7 26 13 13 38 1 38 -19z"/>
<path d="M780 726 c0 -20 21 -66 31 -66 4 0 11 5 14 10 9 14 62 12 68 -2 7
-19 34 10 43 46 l7 30 -28 -22 c-35 -28 -75 -28 -109 -1 -21 16 -26 17 -26 5z"/>
</g>
</svg>
